<svg xmlns="http://www.w3.org/2000/svg" viewBox="0 0 163.55 83.12"><defs><style>.a{fill:#f8a87f;}.b{fill:#ffd440;}.c{fill:#f48366;}.d{fill:#191415;}.e{fill:#fff;}.f{fill:#f05b40;}</style></defs><title>negative-logo-white</title><path class="a" d="M108.64,6.06c-40-5.21-72.42,1.13-72.42,14.16,0,6.24,7.44,12.89,19.59,18.69l-1.9,9.26,7.68-6.7c12.66,5.18,29.09,9.45,47,11.79,40,5.21,72.42-1.13,72.42-14.16S148.64,11.27,108.64,6.06Z" transform="translate(-18.69 -4.23)"/><circle class="b" cx="23.04" cy="60.12" r="18.19"/><circle class="c" cx="18.19" cy="64.11" r="18.19"/><path class="d" d="M44.67,86.88A20.12,20.12,0,1,1,60,62.92,20.14,20.14,0,0,1,44.67,86.88ZM37.08,52.24a15.34,15.34,0,1,0,18.27,11.7A15.36,15.36,0,0,0,37.08,52.24Z" transform="translate(-18.69 -4.23)"/><path class="d" d="M27.39,65.05s0.72-2.74,2.43-3,2.31,2,4.13,1.8,2.57-.34,2.37.06a4.36,4.36,0,0,1-3.5.8c-1.43-.33-3.2-1.52-4.3.36C27,67.55,27.39,65.05,27.39,65.05Z" transform="translate(-18.69 -4.23)"/><circle class="d" cx="33.78" cy="66.34" r="1.89" transform="translate(-32.11 4.54) rotate(-12.36)"/><circle class="d" cx="44.24" cy="64.05" r="1.89" transform="translate(-31.38 6.73) rotate(-12.36)"/><path class="d" d="M40.82,63.76a2.72,2.72,0,0,0,2.95-2.29C44.16,59,44.83,58.2,46.15,58s2.69,0.51,2.35,0a2.8,2.8,0,0,0-3.57-1.52c-2.62.83-1.88,2.65-2.42,4.93s-2.15,1.21-2.06,1.77S40.82,63.76,40.82,63.76Z" transform="translate(-18.69 -4.23)"/><path class="d" d="M41,58.34s0-1.36,2.1-2.78,4-.27,3.77-0.73a3.85,3.85,0,0,0-4.41-.26,3.72,3.72,0,0,0-1.8,3.84A0.4,0.4,0,0,0,41,58.34Z" transform="translate(-18.69 -4.23)"/><path class="d" d="M50.56,73.2c-0.89-3.5-5.24-4.2-5.32-4a0.93,0.93,0,0,0,.65.47A5.88,5.88,0,0,1,49,73.16a11.14,11.14,0,0,0-9-2.39c-5.83,1.12-7.42,4.5-7.42,4.5s-0.47.36-.16,0.61,0.66-.85,6.72-2.47A15.82,15.82,0,0,1,49.23,74c0.75,2.54.14,4.68,0.6,4.49S51.25,75.91,50.56,73.2Z" transform="translate(-18.69 -4.23)"/><path class="d" d="M37.7,76.53A4.53,4.53,0,0,1,41,75.8c2.24,0.22,2.92.84,3,.54s-1.62-1.93-4.5-1.56S36.84,76,37.05,76.22A1.25,1.25,0,0,0,37.7,76.53Z" transform="translate(-18.69 -4.23)"/><path class="e" d="M62.17,47.63H72c7,0,10.93,3.23,10.93,9.62,0,4-1.64,6.72-4.52,7.88v0.11c3.23,1.22,5.72,3.81,5.72,9.09,0,6.72-4,10.42-11.41,10.42H62.17V47.63ZM68.71,63h3c3,0,4.69-1.69,4.69-4.76s-1.72-4.71-4.69-4.71h-3V63Zm0,15.81h3.66c3.27,0,5.21-1.9,5.21-5.23s-2-5.18-5.21-5.18H68.71V78.82Z" transform="translate(-18.69 -4.23)"/><path class="e" d="M95,47.63h6.76l11.84,37.12H106.7l-2.24-7.46H92.15l-2.24,7.46H83.2Zm7.7,23.16-2.67-9c-0.34-1.16-1.51-5.39-1.64-6.45H98.22c-0.13,1.06-1.29,5.29-1.64,6.45l-2.67,9h8.78Z" transform="translate(-18.69 -4.23)"/><path class="e" d="M118.77,47.63h6.71l5.59,17.82a59.32,59.32,0,0,1,1.72,7.4h0.13a59.39,59.39,0,0,1,1.72-7.4l5.59-17.82h6.54l4.48,37.12H145l-1.76-16.66c-0.17-1.74-.65-5.71-0.73-7.56l-0.13-.05a58.62,58.62,0,0,1-1.72,6.5L135,84.75h-4.52L124.93,67a58.8,58.8,0,0,1-1.72-6.5l-0.13.05c-0.09,1.85-.56,5.82-0.73,7.56l-1.76,16.66H114.3Z" transform="translate(-18.69 -4.23)"/><path class="e" d="M163.64,47.63h6.76l11.84,37.12h-6.89l-2.24-7.46H160.8l-2.24,7.46h-6.71Zm7.7,23.16-2.67-9c-0.34-1.16-1.51-5.39-1.64-6.45h-0.17c-0.13,1.06-1.29,5.29-1.64,6.45l-2.67,9h8.78Z" transform="translate(-18.69 -4.23)"/><circle class="f" cx="10.41" cy="65.37" r="1.88"/><path class="e" d="M67.14,27.3L68,21.71l-1.53-.23,0.6-4,1.53,0.23,0.58-3.88,4.48,0.67-0.58,3.88,2.12,0.32-0.6,4-2.12-.32-0.74,5c-0.18,1.22.31,1.5,0.94,1.59a4.1,4.1,0,0,0,1,0L73,33.07a7.66,7.66,0,0,1-2.26,0C67.51,32.54,66.64,30.66,67.14,27.3Z" transform="translate(-18.69 -4.23)"/><path class="e" d="M77.92,13l4.48,0.67-1.19,8h0a4,4,0,0,1,3.93-1.75c3.16,0.47,4.06,3.33,3.48,7.16l-1.22,8.17L83,34.5l1.11-7.39c0.21-1.39.36-2.91-1.24-3.15s-2.15,1.13-2.37,2.61L79.35,34l-4.48-.67Z" transform="translate(-18.69 -4.23)"/><path class="e" d="M90.12,28.08c0.65-4.32,3.64-6.95,7-6.45a4.24,4.24,0,0,1,3.31,2.54h0l0.25-1.65,4.17,0.62-2.14,14.31-4.17-.62,0.25-1.65h0a4.23,4.23,0,0,1-3.91,1.46C90.31,36,89.62,31.38,90.12,28.08Zm9.24,1.56c0.22-1.45-.23-3.12-1.91-3.37s-2.56,1.19-2.78,2.66S95,32.07,96.55,32.3,99.12,31.23,99.36,29.64Z" transform="translate(-18.69 -4.23)"/><path class="e" d="M107.12,23.48l4.2,0.63L111,26.05h0a4.11,4.11,0,0,1,4.11-1.72c3.3,0.49,4.15,3.35,3.58,7.17l-1.22,8.17L113.07,39l1.11-7.39c0.21-1.39.36-2.91-1.24-3.15s-2.15,1.13-2.37,2.61l-1.11,7.39L105,37.79Z" transform="translate(-18.69 -4.23)"/><path class="e" d="M122.69,19.65l4.48,0.67L125.42,32l4.06-5.2,5.23,0.78-5.07,6L132.85,42l-5.28-.79-2.42-7.35-1,6.84L119.65,40Z" transform="translate(-18.69 -4.23)"/><path class="e" d="M133.33,40l2.47-2.83a4,4,0,0,0,2.75,2.1,1,1,0,0,0,1.31-.72c0.12-.78-0.72-1-1.76-1.48-1.83-.84-3.49-2.15-3.08-4.87,0.47-3.13,3.08-4.49,6.17-4a6.19,6.19,0,0,1,4.2,2.38l-2.48,2.89A3.37,3.37,0,0,0,140.68,32c-0.85-.13-1.22.23-1.27,0.58-0.08.55,0.76,0.85,1.71,1.32,2.06,1,3.55,2.22,3.13,5-0.47,3.13-3.08,4.66-6.13,4.21A6.11,6.11,0,0,1,133.33,40Z" transform="translate(-18.69 -4.23)"/><path class="e" d="M146.13,41.17c0.26-1.74,1.54-2.91,3-2.69s2.35,1.71,2.09,3.45-1.54,2.91-3,2.69S145.87,42.9,146.13,41.17ZM148,30.89l1.09-7.3,4.53,0.68-1.09,7.3-2.33,5.9-1.7-.25Z" transform="translate(-18.69 -4.23)"/><polygon class="e" points="4.27 26.83 1.67 16.83 7.88 15.21 10.47 25.22 10.71 34.1 8.38 34.71 4.27 26.83"/><circle class="e" cx="10.77" cy="38.92" r="2.89"/></svg>