<svg xmlns="http://www.w3.org/2000/svg" viewBox="0 0 171.68 84.85"><defs><style>.a{fill:#8dd7f7;}.b{fill:#fad1cd;}.c{fill:#6dcef5;}.d{fill:#231f20;}.e{fill:#fff;}.f{fill:#191415;}.g{fill:#f9bfbe;}</style></defs><title>positive-logo</title><path class="a" d="M185.15,26.92c-1.73-13.08-36.24-23.62-77.08-23.55S35.52,14.11,37.25,27.19c0.8,6,8.54,11.5,20.65,15.66l-1.61,7.86,7.06-6.16c13.7,3.87,31.62,6.22,51,6.19C155.17,50.66,186.87,40,185.15,26.92Z" transform="translate(-14.62 -3.37)"/><circle class="b" cx="29.6" cy="63.9" r="20.11"/><circle class="c" cx="26.46" cy="64.73" r="20.11"/><path class="d" d="M64.74,47.07h9.94c7.1,0,11.07,3.27,11.07,9.74,0,4.07-1.66,6.8-4.58,8v0.11c3.27,1.23,5.8,3.85,5.8,9.21,0,6.8-4,10.55-11.55,10.55H64.74V47.07Zm6.62,15.58h3c3,0,4.75-1.71,4.75-4.82s-1.74-4.76-4.75-4.76h-3v9.58Zm0,16h3.7c3.31,0,5.27-1.93,5.27-5.3s-2-5.25-5.27-5.25h-3.7V78.65Z" transform="translate(-14.62 -3.37)"/><path class="d" d="M98,47.07h6.84l12,37.58h-7l-2.27-7.55H95.09l-2.27,7.55H86Zm7.8,23.45-2.7-9.15c-0.35-1.18-1.53-5.46-1.66-6.53h-0.17c-0.13,1.07-1.31,5.35-1.66,6.53l-2.7,9.15h8.89Z" transform="translate(-14.62 -3.37)"/><path class="d" d="M122,47.07h6.8l5.66,18a60.06,60.06,0,0,1,1.74,7.5h0.13a60.14,60.14,0,0,1,1.74-7.5l5.66-18h6.62l4.53,37.58h-6.36L146.8,67.78c-0.17-1.77-.65-5.78-0.74-7.66l-0.13-.05a59.36,59.36,0,0,1-1.74,6.58l-5.66,18h-4.58l-5.66-18a59.54,59.54,0,0,1-1.74-6.58l-0.13.05c-0.09,1.87-.57,5.89-0.74,7.66l-1.79,16.86h-6.36Z" transform="translate(-14.62 -3.37)"/><path class="d" d="M167.48,47.07h6.84l12,37.58h-7l-2.27-7.55H164.6l-2.27,7.55h-6.8Zm7.8,23.45-2.7-9.15c-0.35-1.18-1.53-5.46-1.66-6.53h-0.17c-0.13,1.07-1.31,5.35-1.66,6.53l-2.7,9.15h8.89Z" transform="translate(-14.62 -3.37)"/><path class="e" d="M69.46,30.51l0.1-5.72-1.57,0,0.07-4.09,1.57,0,0.07-4,4.59,0.08-0.07,4,2.17,0L76.32,24.9l-2.17,0-0.09,5.07c0,1.25.51,1.46,1.16,1.47a4.15,4.15,0,0,0,1-.1l-0.07,4.21a7.75,7.75,0,0,1-2.27.26C70.53,35.71,69.4,33.94,69.46,30.51Z" transform="translate(-14.62 -3.37)"/><path class="e" d="M78.38,14.67L83,14.75,82.82,22.9h0a4,4,0,0,1,3.71-2.28c3.23,0.06,4.51,2.81,4.45,6.72l-0.14,8.36-4.59-.08,0.13-7.56c0-1.42,0-3-1.66-3s-2,1.42-2,2.93L82.6,35.56,78,35.49Z" transform="translate(-14.62 -3.37)"/><path class="e" d="M92.63,28.23c0.08-4.42,2.73-7.46,6.14-7.4a4.29,4.29,0,0,1,3.66,2.11h0l0-1.69,4.27,0.07L106.52,36l-4.27-.07,0-1.69h0a4.29,4.29,0,0,1-3.73,2C93.87,36.11,92.57,31.61,92.63,28.23Zm9.48,0.34c0-1.48-.65-3.1-2.36-3.13s-2.42,1.53-2.44,3,0.79,3.1,2.34,3.12S102.08,30.2,102.11,28.57Z" transform="translate(-14.62 -3.37)"/><path class="e" d="M109.09,21.36l4.3,0.07,0,2h0a4.17,4.17,0,0,1,3.9-2.28c3.38,0.06,4.61,2.81,4.54,6.72l-0.14,8.36-4.59-.08,0.13-7.56c0-1.42,0-3-1.66-3s-2,1.42-2,2.93l-0.13,7.56L108.84,36Z" transform="translate(-14.62 -3.37)"/><path class="e" d="M124.21,15.45l4.59,0.08-0.2,12L132,21.76l5.36,0.09L133,28.54l4.33,8L132,36.41l-3.4-7.06-0.12,7-4.59-.08Z" transform="translate(-14.62 -3.37)"/><path class="e" d="M137.59,34.52l2.11-3.17a4,4,0,0,0,3,1.74,1,1,0,0,0,1.22-.9c0-.8-0.85-0.9-2-1.25-1.94-.6-3.79-1.7-3.74-4.48,0.05-3.2,2.5-4.91,5.66-4.86a6.27,6.27,0,0,1,4.53,1.83l-2.11,3.23a3.41,3.41,0,0,0-2.44-1.2c-0.87,0-1.19.39-1.2,0.75,0,0.56.88,0.76,1.89,1.1,2.21,0.75,3.86,1.76,3.81,4.6-0.05,3.2-2.48,5.09-5.59,5A6.19,6.19,0,0,1,137.59,34.52Z" transform="translate(-14.62 -3.37)"/><path class="e" d="M150.59,33.94c0-1.78,1.16-3.12,2.66-3.1s2.58,1.41,2.55,3.19-1.16,3.12-2.66,3.1S150.56,35.72,150.59,33.94Zm0.47-10.55,0.13-7.47L155.82,16l-0.13,7.47-1.56,6.23-1.74,0Z" transform="translate(-14.62 -3.37)"/><circle class="f" cx="37.35" cy="65.84" r="1.91" transform="translate(-27.85 6.16) rotate(-12.36)"/><path class="f" d="M47,86.89A20.37,20.37,0,1,1,62.5,62.63,20.4,20.4,0,0,1,47,86.89ZM39.28,51.82a15.53,15.53,0,1,0,18.5,11.85A15.55,15.55,0,0,0,39.28,51.82Z" transform="translate(-14.62 -3.37)"/><path class="f" d="M33.64,60.6s0.52-1.3,2.77-1.79,2.85,0.23,3.11-.06-0.72-2.8-4.23-1.08c-1.54.76-2.4,2.78-2.11,3A0.31,0.31,0,0,0,33.64,60.6Z" transform="translate(-14.62 -3.37)"/><circle class="f" cx="46.9" cy="65.84" r="1.91" transform="translate(-42.08 94.19) rotate(-77.64)"/><path class="f" d="M50.61,60.6s-0.52-1.3-2.77-1.79S45,59,44.73,58.75s0.72-2.8,4.23-1.08c1.54,0.76,2.4,2.78,2.11,3A0.31,0.31,0,0,1,50.61,60.6Z" transform="translate(-14.62 -3.37)"/><path class="f" d="M53.49,70A2.41,2.41,0,0,0,50,69.62c0,0.43.49,0.4,0.48,0.4a3,3,0,0,1,1.31.51c-0.89.85-3.39,4.34-8.13,4.74-5.58.47-8.57-2-8.57-2s-0.73-.33-0.88,0,1.5,4.19,8.21,4.27c5.84,0.06,9.17-5.23,9.67-6.8a2.6,2.6,0,0,1,.65,1c0.62,1.57.23,3,.63,3S54.5,71.24,53.49,70Z" transform="translate(-14.62 -3.37)"/><path class="g" d="M31,29.44a5.39,5.39,0,0,0-4.16,0,6.74,6.74,0,0,0-3.5,3.93,6.74,6.74,0,0,0-5.24-.57,5.39,5.39,0,0,0-3.1,2.77,5.23,5.23,0,0,0,0,4.11c1.27,3.29,5.48,5.53,12.89,6.83l0.55,0.1,0.34-.44c4.63-5.93,6.26-10.42,5-13.71A5.23,5.23,0,0,0,31,29.44Z" transform="translate(-14.62 -3.37)"/></svg>