<svg xmlns="http://www.w3.org/2000/svg" viewBox="0 0 175.03 86.5"><defs><style>.a{fill:#8dd7f7;}.b{fill:#fad1cd;}.c{fill:#6dcef5;}.d{fill:#fff;}.e{fill:#191415;}.f{fill:#f9bfbe;}</style></defs><title>positive-logo-white</title><path class="a" d="M186.42,26.76c-1.76-13.34-36.94-24.08-78.58-24S33.88,13.7,35.64,27c0.81,6.14,8.71,11.73,21.06,16l-1.64,8,7.2-6.28c14,3.95,32.24,6.34,52,6.31C155.86,51,188.19,40.09,186.42,26.76Z" transform="translate(-12.58 -2.75)"/><circle class="b" cx="30.18" cy="65.14" r="20.51"/><circle class="c" cx="26.97" cy="65.99" r="20.51"/><path class="d" d="M63.67,47.3H73.8c7.24,0,11.28,3.33,11.28,9.93,0,4.15-1.69,6.93-4.66,8.13v0.11c3.33,1.26,5.91,3.93,5.91,9.39,0,6.93-4.09,10.75-11.77,10.75H63.67V47.3Zm6.75,15.88h3.07c3.07,0,4.84-1.75,4.84-4.91s-1.78-4.86-4.84-4.86H70.42v9.77Zm0,16.32H74.2c3.38,0,5.38-2,5.38-5.4s-2-5.35-5.38-5.35H70.42V79.5Z" transform="translate(-12.58 -2.75)"/><path class="d" d="M97.55,47.3h7l12.22,38.31h-7.11l-2.31-7.7H94.62l-2.31,7.7H85.37Zm8,23.91-2.75-9.33c-0.36-1.2-1.55-5.57-1.69-6.66h-0.18c-0.13,1.09-1.33,5.46-1.69,6.66L96.44,71.2h9.06Z" transform="translate(-12.58 -2.75)"/><path class="d" d="M122.1,47.3H129l5.78,18.39a61.23,61.23,0,0,1,1.78,7.64h0.13a61.31,61.31,0,0,1,1.78-7.64l5.78-18.39H151l4.62,38.31h-6.49l-1.82-17.19c-0.18-1.8-.67-5.89-0.76-7.8l-0.13-.05a60.51,60.51,0,0,1-1.78,6.71l-5.78,18.34h-4.66l-5.78-18.34a60.7,60.7,0,0,1-1.78-6.71l-0.13.05c-0.09,1.91-.58,6-0.76,7.8L124,85.61h-6.49Z" transform="translate(-12.58 -2.75)"/><path class="d" d="M168.41,47.3h7L187.6,85.61H180.5l-2.31-7.7H165.48l-2.31,7.7h-6.93Zm8,23.91-2.75-9.33c-0.36-1.2-1.55-5.57-1.69-6.66h-0.18c-0.13,1.09-1.33,5.46-1.69,6.66L167.3,71.2h9.06Z" transform="translate(-12.58 -2.75)"/><path class="d" d="M68.49,30.41l0.1-5.84-1.6,0,0.07-4.17,1.6,0,0.07-4.05,4.67,0.08-0.07,4.05,2.21,0L75.47,24.7l-2.21,0-0.09,5.17c0,1.27.52,1.49,1.18,1.5a4.23,4.23,0,0,0,1-.1l-0.07,4.29a7.9,7.9,0,0,1-2.32.26C69.58,35.73,68.43,33.92,68.49,30.41Z" transform="translate(-12.58 -2.75)"/><path class="d" d="M77.57,14.27l4.68,0.08-0.14,8.31h0a4.11,4.11,0,0,1,3.78-2.33c3.3,0.06,4.6,2.86,4.53,6.85l-0.15,8.53-4.68-.08,0.13-7.71c0-1.45,0-3-1.69-3.05s-2,1.45-2.07,3l-0.13,7.71-4.68-.08Z" transform="translate(-12.58 -2.75)"/><path class="d" d="M92.1,28.1c0.08-4.5,2.79-7.6,6.26-7.54a4.37,4.37,0,0,1,3.73,2.15h0l0-1.72,4.35,0.07L106.27,36l-4.35-.07,0-1.72h0a4.37,4.37,0,0,1-3.8,2C93.37,36.13,92,31.54,92.1,28.1Zm9.67,0.35c0-1.51-.66-3.16-2.41-3.19s-2.46,1.56-2.49,3.1,0.81,3.16,2.38,3.19S101.74,30.11,101.77,28.44Z" transform="translate(-12.58 -2.75)"/><path class="d" d="M108.89,21.1l4.38,0.07,0,2h0a4.25,4.25,0,0,1,4-2.32c3.44,0.06,4.7,2.86,4.63,6.85l-0.15,8.53-4.67-.08,0.13-7.71c0-1.45,0-3-1.7-3.05s-2,1.45-2.07,3l-0.13,7.71L108.63,36Z" transform="translate(-12.58 -2.75)"/><path class="d" d="M124.3,15.07L129,15.15l-0.21,12.21,3.45-5.87,5.46,0.09-4.37,6.82,4.41,8.12-5.51-.09-3.47-7.2-0.12,7.13-4.68-.08Z" transform="translate(-12.58 -2.75)"/><path class="d" d="M137.95,34.51l2.15-3.23a4.11,4.11,0,0,0,3.1,1.78,1,1,0,0,0,1.25-.92c0-.82-0.87-0.92-2-1.27-2-.61-3.86-1.73-3.81-4.57,0.06-3.27,2.55-5,5.77-5A6.39,6.39,0,0,1,149,23.2l-2.15,3.29a3.48,3.48,0,0,0-2.49-1.22c-0.89,0-1.21.4-1.22,0.77,0,0.57.9,0.77,1.93,1.12,2.25,0.76,3.93,1.79,3.88,4.69-0.06,3.27-2.53,5.19-5.7,5.13A6.31,6.31,0,0,1,137.95,34.51Z" transform="translate(-12.58 -2.75)"/><path class="d" d="M151.2,33.92c0-1.81,1.19-3.19,2.71-3.16s2.63,1.44,2.6,3.25-1.19,3.19-2.71,3.16S151.16,35.73,151.2,33.92Zm0.48-10.76,0.13-7.62,4.72,0.08-0.13,7.62-1.59,6.35-1.77,0Z" transform="translate(-12.58 -2.75)"/><circle class="e" cx="35.75" cy="66.44" r="1.95" transform="translate(-25.97 6.45) rotate(-12.36)"/><path class="e" d="M45.55,87.9A20.77,20.77,0,1,1,61.39,63.17,20.79,20.79,0,0,1,45.55,87.9ZM37.71,52.15A15.84,15.84,0,1,0,56.57,64.22,15.85,15.85,0,0,0,37.71,52.15Z" transform="translate(-12.58 -2.75)"/><path class="e" d="M32,61.09s0.53-1.32,2.82-1.82S37.7,59.5,38,59.21s-0.74-2.86-4.32-1.1c-1.57.77-2.44,2.83-2.15,3A0.32,0.32,0,0,0,32,61.09Z" transform="translate(-12.58 -2.75)"/><circle class="e" cx="45.48" cy="66.44" r="1.95" transform="translate(-41.73 93.89) rotate(-77.64)"/><path class="e" d="M49.26,61.09s-0.53-1.32-2.82-1.82-2.91.24-3.17-.06,0.74-2.86,4.32-1.1c1.57,0.77,2.44,2.83,2.15,3A0.32,0.32,0,0,1,49.26,61.09Z" transform="translate(-12.58 -2.75)"/><path class="e" d="M52.2,70.68a2.46,2.46,0,0,0-3.58-.39c0,0.43.5,0.4,0.49,0.41a3.07,3.07,0,0,1,1.34.52c-0.91.87-3.45,4.42-8.29,4.83-5.69.48-8.74-2-8.74-2s-0.74-.33-0.89,0,1.52,4.28,8.37,4.35c6,0.06,9.35-5.34,9.86-6.93a2.65,2.65,0,0,1,.66,1c0.63,1.6.23,3.06,0.64,3S53.23,71.95,52.2,70.68Z" transform="translate(-12.58 -2.75)"/><path class="f" d="M29.32,29.33a5.49,5.49,0,0,0-4.24,0,6.87,6.87,0,0,0-3.57,4,6.87,6.87,0,0,0-5.34-.59A5.49,5.49,0,0,0,13,35.59a5.34,5.34,0,0,0,0,4.19c1.29,3.36,5.59,5.63,13.14,7l0.56,0.1L27,46.4c4.72-6,6.38-10.62,5.09-14A5.34,5.34,0,0,0,29.32,29.33Z" transform="translate(-12.58 -2.75)"/></svg>