<svg xmlns="http://www.w3.org/2000/svg" viewBox="0 0 170.67 158.52"><defs><style>.a{fill:#fad1cd;}.b{fill:#6dcef5;}.c{fill:#191415;}</style></defs><title>smile-positive</title><circle class="a" cx="83.82" cy="78.68" r="76.65"/><circle class="b" cx="94.02" cy="81.87" r="76.65"/><circle class="c" cx="72.29" cy="94" r="7.29" transform="translate(-33.11 -3.08) rotate(-12.36)"/><path class="c" d="M108.94,174.23a77.64,77.64,0,1,1,59.22-92.47A77.73,77.73,0,0,1,108.94,174.23ZM79.64,40.57a59.19,59.19,0,1,0,70.49,45.15A59.26,59.26,0,0,0,79.64,40.57Z" transform="translate(-14.66 -20.74)"/><path class="c" d="M58.17,74s2-4.94,10.54-6.81S79.58,68.08,80.57,67c1.25-1.39-2.76-10.67-16.13-4.11-5.87,2.88-9.13,10.59-8,11.36A1.19,1.19,0,0,0,58.17,74Z" transform="translate(-14.66 -20.74)"/><circle class="c" cx="108.69" cy="94" r="7.29" transform="translate(-21.07 159.3) rotate(-77.64)"/><path class="c" d="M122.81,74s-2-4.94-10.54-6.81-10.87.88-11.86-.22c-1.25-1.39,2.76-10.67,16.13-4.11,5.87,2.88,9.13,10.59,8,11.36A1.19,1.19,0,0,1,122.81,74Z" transform="translate(-14.66 -20.74)"/><path class="c" d="M133.79,109.87c-5.37-6.55-13.26-2.58-13.37-1.47-0.15,1.62,1.85,1.51,1.84,1.52a11.47,11.47,0,0,1,5,2c-3.39,3.26-12.91,16.52-31,18.06C75,131.74,63.6,122.29,63.6,122.29s-2.78-1.25-3.34.14,5.7,16,31.28,16.26c22.27,0.24,34.94-19.95,36.84-25.91a9.92,9.92,0,0,1,2.46,3.63c2.36,6,.87,11.44,2.4,11.3S137.65,114.58,133.79,109.87Z" transform="translate(-14.66 -20.74)"/></svg>