<svg xmlns="http://www.w3.org/2000/svg" viewBox="0 0 184.41 181.7"><defs><style>.a{fill:#ffd440;}.b{fill:#f48366;}.c{fill:#191415;}.d{fill:#f05b40;}</style></defs><title>smile-negative</title><circle class="a" cx="101.65" cy="80.25" r="80.25"/><circle class="b" cx="80.25" cy="97.83" r="80.25"/><path class="c" d="M122.43,188.78a88.77,88.77,0,1,1,67.7-105.71A88.87,88.87,0,0,1,122.43,188.78ZM88.94,36a67.68,67.68,0,1,0,80.6,51.62A67.75,67.75,0,0,0,88.94,36Z" transform="translate(-7.8 -9.15)"/><path class="c" d="M46.17,92.49S49.35,80.41,56.88,79,67.07,87.91,75.12,87s11.34-1.49,10.44.27-9.15,5-15.44,3.53-14.1-6.71-19,1.6C44.6,103.5,46.17,92.49,46.17,92.49Z" transform="translate(-7.8 -9.15)"/><circle class="c" cx="74.38" cy="98.16" r="8.34" transform="translate(-27.09 9.05) rotate(-12.36)"/><circle class="c" cx="120.52" cy="88.05" r="8.34" transform="translate(-23.85 18.69) rotate(-12.36)"/><path class="c" d="M105.44,86.76s11.3,0.94,13-10.1,4.67-14.39,10.49-15.1,11.87,2.23,10.35-.14-5.42-10-15.76-6.71c-11.57,3.67-8.31,11.71-10.66,21.75s-9.49,5.35-9.09,7.82S105.44,86.76,105.44,86.76Z" transform="translate(-7.8 -9.15)"/><path class="c" d="M106,62.88s0.11-6,9.26-12.27,17.8-1.2,16.64-3.22-10.77-6.31-19.45-1.14c-9.29,5.54-8.71,16.7-7.94,17A1.75,1.75,0,0,0,106,62.88Z" transform="translate(-7.8 -9.15)"/><path class="c" d="M148.38,128.41c-3.94-15.45-23.12-18.54-23.46-17.47S127.8,113,127.8,113s8.48,2.92,13.52,15.23c-5.77-5-21-14.15-39.65-10.56-25.72,5-32.72,19.85-32.72,19.85s-2.07,1.59-.69,2.71,2.92-3.74,29.66-10.89c23.08-6.16,39.2.52,44.64,2.42,3.32,11.19.63,20.63,2.66,19.79C147.43,150.66,151.43,140.4,148.38,128.41Z" transform="translate(-7.8 -9.15)"/><path class="c" d="M91.68,143.1s4.77-4.18,14.66-3.21,12.9,3.71,13,2.4-7.13-8.53-19.86-6.88-11.65,5.26-10.7,6.33A5.52,5.52,0,0,0,91.68,143.1Z" transform="translate(-7.8 -9.15)"/><circle class="d" cx="45.92" cy="103.41" r="8.3"/></svg>